PathFileType	4	(X/Y/Z)	./resultDataOpenSim/trcMotMarkerGrf/sub06/qtm-05-07.trc
DataRate	CameraRate	NumFrames	NumMarkers	Units	OrigDataRate	OrigDataStartFrame	OrigNumFrames
250.000000	250.000000	7	24	m	250.000000	400	533
Frame#	Time	L.Toe.Tip			R.Toe.Tip			L.Ankle.Lat			R.Ankle.Lat			L.Ankle.Med			R.Ankle.Med			L.Heel			R.Heel			L.Knee.Lat			R.Knee.Lat			L.Knee.Med			R.Knee.Med			L.Thigh.Upper			R.Thigh.Upper			L.ASIS			R.ASIS			V.Sacral			L.Acromium			R.Acromium			C7			L.Elbow			R.Elbow			L.Wrist.Lat			R.Wrist.Lat
		X1	Y1	Z1	X2	Y2	Z2	X3	Y3	Z3	X4	Y4	Z4	X5	Y5	Z5	X6	Y6	Z6	X7	Y7	Z7	X8	Y8	Z8	X9	Y9	Z9	X10	Y10	Z10	X11	Y11	Z11	X12	Y12	Z12	X13	Y13	Z13	X14	Y14	Z14	X15	Y15	Z15	X16	Y16	Z16	X17	Y17	Z17	X18	Y18	Z18	X19	Y19	Z19	X20	Y20	Z20	X21	Y21	Z21	X22	Y22	Z22	X23	Y23	Z23	X24	Y24	Z24

400	1.596	1.6035822	0.12510954	-0.040699445	0.90311801	0.034751967	0.1193729	1.4767541	0.10179703	-0.051916653	0.78144705	0.095960316	0.14058573	1.477625	0.11827861	0.031513797	0.81326168	0.1151826	0.05701483	1.4275631	0.042645984	-0.0021960032	0.72723287	0.095941986	0.078595814	1.3578037	0.44975159	-0.054557451	0.98399693	0.43556396	0.17929067	1.3344165	0.43348639	0.068893937	0.96991993	0.43482151	0.04713926	1.1794822	0.79439624	-0.10327367	1.0761141	0.78520562	0.22996301	1.2365637	0.84223709	-0.042572362	1.199135	0.83175102	0.20360014	1.03057	0.90861564	0.050914448	1.14601	1.320237	-0.11358161	1.1493877	1.3143706	0.24919983	1.0652548	1.34998	0.068086324	1.0230859	1.0415417	-0.16645775	1.1944309	0.99714522	0.33724005	1.0506002	0.81103552	-0.23956182	1.4377099	1.0017965	0.27441374
401	1.6	1.6114911	0.12448747	-0.038921971	0.90325169	0.034752305	0.11940326	1.4846153	0.100836	-0.050305778	0.78244583	0.097214038	0.14107951	1.4848673	0.11749057	0.032967748	0.81428977	0.1162074	0.057393528	1.4354928	0.04152432	-0.0002453041	0.72822318	0.097959379	0.079129312	1.3652367	0.44907429	-0.053613088	0.98874952	0.43479797	0.17935729	1.3407966	0.43264086	0.069697149	0.9748778	0.43393515	0.047267746	1.1868173	0.79280537	-0.10354746	1.0820723	0.7837928	0.22925039	1.2435698	0.84052815	-0.042809878	1.205493	0.83008484	0.20324321	1.0369353	0.90713555	0.049936774	1.1522295	1.3186255	-0.11406438	1.1553352	1.3127619	0.2487933	1.0713567	1.3484118	0.06758154	1.028774	1.0403109	-0.16675877	1.2015562	0.99566625	0.33695698	1.0550289	0.8098294	-0.24053324	1.4444966	1.0012062	0.27355687
402	1.604	1.6187315	0.123313	-0.037054703	0.90338763	0.03477445	0.11946806	1.4918385	0.099566324	-0.048658816	0.78347515	0.098514434	0.14162574	1.4916541	0.11637785	0.034508204	0.81545344	0.11727065	0.057857302	1.4427084	0.040184621	0.0018003132	0.72930312	0.10009795	0.079726032	1.3726175	0.4483985	-0.052733083	0.9935982	0.43403538	0.17941472	1.3473305	0.43201052	0.070414824	0.97995391	0.43303746	0.047421149	1.1941872	0.79131044	-0.10383828	1.0880224	0.78243265	0.22855021	1.2506112	0.8388278	-0.043021647	1.2119104	0.82845943	0.20279782	1.0435852	0.90563532	0.049632814	1.1584938	1.3170452	-0.11456758	1.1612895	1.3111924	0.24838987	1.0775112	1.346855	0.067047157	1.0345455	1.0390707	-0.16710866	1.2085847	0.9942066	0.33664246	1.0596704	0.80861607	-0.24146575	1.4511999	1.0004939	0.27273608
403	1.608	1.6253251	0.12160921	-0.035088041	0.90353457	0.034809714	0.11954968	1.4984285	0.097996425	-0.047010677	0.7845543	0.09987295	0.14222336	1.4979541	0.11497575	0.036104404	0.81682084	0.11833342	0.058440565	1.4491597	0.038676538	0.0036385213	0.73050157	0.10235563	0.080367718	1.3799377	0.44769437	-0.051933296	0.9985343	0.43328665	0.17947256	1.3540239	0.43155007	0.071054031	0.98515042	0.43212582	0.047598785	1.2015741	0.7899228	-0.1041646	1.0939143	0.78114088	0.22788338	1.2576711	0.83716507	-0.043221752	1.2183827	0.82684671	0.20238617	1.0505063	0.90415593	0.049945962	1.1648027	1.3155017	-0.11509104	1.167265	1.3096705	0.24797765	1.0837095	1.3453193	0.066486654	1.040407	1.0378352	-0.16748937	1.2155108	0.99277397	0.33629878	1.0645314	0.8073957	-0.24236015	1.457826	0.99966416	0.27194773
404	1.612	1.6312994	0.11941022	-0.033001693	0.90369945	0.034855953	0.1196356	1.5044112	0.096143685	-0.045389176	0.78572599	0.10131675	0.14287039	1.5037035	0.11330285	0.037731283	0.81834416	0.11942706	0.059114934	1.4548387	0.037022945	0.0051757856	0.73183379	0.104736	0.081046448	1.3872102	0.4469542	-0.051222548	1.0035859	0.43255085	0.17958449	1.3608676	0.43119237	0.07161572	0.99047408	0.43120765	0.047803629	1.2089605	0.78865562	-0.10454386	1.0997729	0.77991764	0.22725222	1.2647498	0.83555566	-0.043425404	1.2249201	0.82525007	0.20209017	1.057579	0.90269672	0.050522251	1.1711565	1.3140017	-0.11564158	1.1732721	1.3081981	0.24753271	1.0899406	1.3438177	0.065901839	1.0463606	1.0366091	-0.16789372	1.2223269	0.99137335	0.33592921	1.069609	0.80617161	-0.24322992	1.4643883	0.99871723	0.27118977
405	1.616	1.6366712	0.11674198	-0.030779645	0.90388726	0.034905846	0.11972479	1.5098401	0.094028988	-0.043790336	0.78702399	0.10286191	0.14356725	1.5088704	0.11137165	0.039371062	0.81990587	0.1206333	0.059810444	1.4597824	0.035209525	0.0065499758	0.73327183	0.10726125	0.081792705	1.3944504	0.4461861	-0.050598244	1.0088253	0.43180193	0.1798165	1.3678525	0.43087312	0.072098252	0.99593942	0.43028876	0.048039618	1.2163373	0.78751063	-0.104985	1.1057605	0.77872883	0.22662751	1.2718634	0.83400028	-0.043637731	1.2315457	0.82370159	0.20189321	1.0646801	0.90127433	0.050984717	1.1775537	1.3125499	-0.11622236	1.1792927	1.3067792	0.24704133	1.0962015	1.3423565	0.065286244	1.0524077	1.0353954	-0.16831958	1.2290316	0.99001511	0.33554303	1.0748933	0.80494579	-0.24408467	1.4708871	0.99765247	0.27046333
406	1.62	1.6414625	0.11362806	-0.028426285	0.90410392	0.034949712	0.11982936	1.5147452	0.091669421	-0.04217638	0.78846383	0.10450329	0.14430751	1.5134588	0.1092001	0.041009171	0.82145919	0.12199486	0.060485844	1.4640154	0.033233112	0.0079058189	0.73475938	0.10996026	0.082664718	1.4016625	0.44540759	-0.050048977	1.0143203	0.43100739	0.1801888	1.3749699	0.43055801	0.072501207	1.0015631	0.42936426	0.048307167	1.223707	0.78647774	-0.10548251	1.1120873	0.777523	0.22596383	1.2790249	0.83250001	-0.043859929	1.2382457	0.82223394	0.20174266	1.0715806	0.89994305	0.050805431	1.1839938	1.3111489	-0.11682906	1.1853027	1.3054217	0.24650061	1.1025	1.3409312	0.064628267	1.0585529	1.0341976	-0.16876967	1.2356231	0.98870827	0.3351472	1.0803813	0.8037206	-0.24491259	1.4773102	0.99647197	0.26977059
